<?xml version="1.0" encoding="utf-8"?>
<!-- Generator: Adobe Illustrator 26.0.3, SVG Export Plug-In . SVG Version: 6.00 Build 0)  -->
<svg version="1.1" id="Layer_1" xmlns="http://www.w3.org/2000/svg" xmlns:xlink="http://www.w3.org/1999/xlink" x="0px" y="0px"
	 viewBox="0 0 26 26" style="enable-background:new 0 0 26 26;" xml:space="preserve">
<style type="text/css">
	.st0{fill:#FFFFFF;}
</style>
<path class="st0" d="M20.16,24.05c-2.3,0-4.16,0.44-4.16,0.98c0,0.54,1.86,0.98,4.16,0.98c2.3,0,4.16-0.44,4.16-0.98
	C24.32,24.48,22.46,24.05,20.16,24.05z"/>
<g id="XMLID_00000053542236915135629020000007043000667138369202_">
	<g>
		<path class="st0" d="M25.24,7.13c0.78,5.67-2.45,6.56-4,6.99c-0.21,0.05-0.45,0.12-0.58,0.18v10.8h-0.41V13.6
			c0.2-0.1,0.46-0.18,0.77-0.27c1.27-0.34,3.23-0.89,3.5-3.87c0.1,0.01,0.2,0.01,0.3,0.02l0.09-0.86c-0.12-0.01-0.24-0.02-0.36-0.02
			c-0.01-0.41-0.04-0.86-0.11-1.36c-0.52-3.83-0.67-5.5-0.71-6.16c-0.77-0.05-2.54-0.18-3.48-0.19V0.08
			c1.22,0.01,3.79,0.22,3.9,0.22c0.21,0.02,0.37,0.2,0.37,0.41C24.52,0.76,24.53,1.87,25.24,7.13z"/>
		<path class="st0" d="M24.91,8.62l-0.09,0.86c-0.1-0.01-0.2-0.01-0.3-0.02c0.03-0.26,0.04-0.55,0.03-0.86
			C24.67,8.6,24.79,8.61,24.91,8.62z"/>
		<path class="st0" d="M24.55,8.6c0.01,0.31,0,0.6-0.03,0.86c-3.83-0.26-7.58-0.06-8.54,0c-0.03-0.26-0.04-0.54-0.03-0.85
			C16.97,8.54,20.71,8.35,24.55,8.6z"/>
		<path class="st0" d="M15.98,9.46c0.96-0.06,4.71-0.26,8.54,0c-0.27,2.98-2.23,3.53-3.5,3.87c-0.31,0.09-0.57,0.17-0.77,0.27
			c-0.2-0.1-0.46-0.18-0.77-0.27C18.21,12.99,16.25,12.44,15.98,9.46z"/>
		<path class="st0" d="M20.25,13.6v11.5h-0.4V14.29c-0.12-0.05-0.37-0.12-0.58-0.17c-1.56-0.43-4.79-1.32-4.01-6.99
			c0.72-5.26,0.72-6.37,0.72-6.42c0-0.21,0.16-0.39,0.37-0.41c0.11,0,2.73-0.19,3.9-0.22v0.81c-0.94,0.01-2.71,0.14-3.48,0.19
			c-0.04,0.66-0.19,2.33-0.71,6.16c-0.07,0.5-0.1,0.96-0.11,1.37c-0.18,0-0.27,0.01-0.28,0.01l0.08,0.86c0.01,0,0.09-0.01,0.23-0.02
			c0.27,2.98,2.23,3.53,3.5,3.87C19.79,13.42,20.05,13.5,20.25,13.6z"/>
		<path class="st0" d="M15.95,8.61c-0.01,0.31,0,0.59,0.03,0.85c-0.14,0.01-0.22,0.02-0.23,0.02l-0.08-0.86
			C15.68,8.62,15.77,8.61,15.95,8.61z"/>
	</g>
	<g>
	</g>
</g>
<g>
	<g>
		<g>
			<circle class="st0" cx="6.06" cy="15.75" r="1.87"/>
		</g>
		<g>
			<circle class="st0" cx="10.18" cy="23.15" r="1.87"/>
		</g>
		<g>
			<g>
				<circle class="st0" cx="1.87" cy="18.09" r="1.87"/>
			</g>
			<g>
				<circle class="st0" cx="1.95" cy="13.29" r="1.87"/>
			</g>
			<g>
				<circle class="st0" cx="6.14" cy="10.95" r="1.87"/>
			</g>
			<g>
				<circle class="st0" cx="10.25" cy="13.42" r="1.87"/>
			</g>
			<g>
				<circle class="st0" cx="10.18" cy="18.21" r="1.87"/>
			</g>
			<g>
				<circle class="st0" cx="5.99" cy="20.55" r="1.87"/>
			</g>
		</g>
	</g>
	<path class="st0" d="M3.76,3.5C0.98,4.8,3.14,9.86,3.14,9.86C2.58,8.07,4.31,5.53,5.71,4.82L3.76,3.5z"/>
</g>
</svg>
